<?xml version="1.0" encoding="UTF-8"?> <!-- Generator: Adobe Illustrator 16.0.0, SVG Export Plug-In . SVG Version: 6.00 Build 0) --> <svg xmlns="http://www.w3.org/2000/svg" xmlns:xlink="http://www.w3.org/1999/xlink" id="Layer_1" x="0px" y="0px" width="60px" height="60px" viewBox="0 0 60 60" xml:space="preserve"> <circle fill="#4D4D4D" cx="30" cy="30" r="30"></circle> <title>Asset 1</title> <path fill="#FFFFFF" d="M16.239,28.284c0.278-0.282,0.499-0.616,0.65-0.982c0.146-0.345,0.223-0.716,0.226-1.09 c0-0.288-0.052-0.574-0.156-0.843c-0.106-0.272-0.272-0.517-0.487-0.715c-0.242-0.221-0.527-0.39-0.837-0.498 c-0.388-0.132-0.796-0.196-1.207-0.187c-0.323,0-0.645,0.039-0.958,0.114c-1.176,0.277-1.952,0.742-2.629,1.404 c-0.213,0.202-0.395,0.436-0.538,0.692c-0.127,0.228-0.194,0.484-0.197,0.746c-0.005,0.179,0.028,0.357,0.097,0.523 c0.06,0.136,0.155,0.253,0.276,0.339c0.138,0.092,0.292,0.156,0.456,0.187c0.205,0.041,0.415,0.061,0.624,0.058 c-0.002-0.028-0.013-0.055-0.03-0.078c-0.025-0.04-0.046-0.081-0.063-0.125c-0.027-0.07-0.049-0.143-0.063-0.217 c-0.022-0.116-0.033-0.234-0.031-0.353c-0.002-0.401,0.084-0.797,0.252-1.161c0.16-0.329,0.381-0.624,0.651-0.87 c0.266-0.246,0.582-0.432,0.926-0.545c0.402-0.132,0.823-0.196,1.245-0.19c0.22-0.005,0.439,0.036,0.642,0.122 c0.172,0.075,0.323,0.19,0.44,0.336c0.115,0.147,0.201,0.315,0.25,0.496c0.055,0.194,0.082,0.396,0.08,0.598 c0,0.21-0.022,0.419-0.066,0.625c-0.089,0.427-0.257,0.833-0.495,1.198c-0.114,0.176-0.248,0.337-0.4,0.481 c-0.144,0.135-0.306,0.25-0.481,0.341c-0.172,0.089-0.36,0.143-0.553,0.157c0,0,0.376-2.23,0.78-3.709 c-0.545-0.451-1.512-0.277-1.661,0.127c-0.593,1.606-1.061,4.595-1.33,5.819c-0.183,0.83-0.823,3.282-0.823,3.282 c1.027,0,1.746-0.416,2.026-1.342c0.292-0.968,0.912-3.76,0.912-3.76h0.061C14.73,29.282,15.603,28.927,16.239,28.284L16.239,28.284 z"></path> <path fill="#FFFFFF" d="M46.393,31.754l0.686-3.208h1.193l0.083-0.429H47.16c0.049-0.241,0.096-0.465,0.139-0.671 s0.084-0.385,0.123-0.535c0.018-0.092,0.035-0.179,0.053-0.259c0.018-0.082,0.249-0.954,0.302-1.145 c-0.415,0.523-1.833,1.132-1.833,1.132l-0.324,1.479h-0.35l-0.089,0.429h0.355l-0.202,0.949c-0.221,0.236-0.84,0.631-1.148,0.248 v-0.011c0-1.139-0.457-1.708-1.373-1.708c-0.336-0.006-0.67,0.061-0.978,0.196c-0.28,0.126-0.535,0.301-0.755,0.515 c-0.219,0.213-0.404,0.457-0.554,0.724c-0.149,0.265-0.272,0.542-0.371,0.83c-0.093,0.268-0.162,0.543-0.209,0.823 c-0.039,0.229-0.062,0.46-0.065,0.692c-0.018,0.044-0.035,0.09-0.057,0.138c-0.05,0.108-0.113,0.209-0.19,0.3 c-0.067,0.08-0.149,0.147-0.241,0.197c-0.089,0.047-0.189,0.071-0.29,0.07c-0.117,0.01-0.233-0.021-0.332-0.086 c-0.081-0.082-0.12-0.197-0.106-0.311c0-0.058,0.004-0.114,0.011-0.171c0.007-0.06,0.02-0.118,0.036-0.176 c0,0,0.564-3.85,1.318-5.993c-0.83,0.128-1.633,0.228-1.633,0.228l-0.564,2.661v-0.042c0-0.155-0.078-0.299-0.205-0.386 c-0.199-0.12-0.431-0.175-0.662-0.156c-0.293-0.008-0.584,0.046-0.854,0.161c-0.256,0.116-0.49,0.275-0.691,0.47 c-0.208,0.202-0.387,0.43-0.533,0.68c-0.15,0.255-0.277,0.523-0.379,0.802c-0.099,0.27-0.174,0.547-0.225,0.831 c-0.032,0.183-0.055,0.367-0.066,0.553c-0.035,0.121-0.078,0.239-0.13,0.354c-0.05,0.114-0.116,0.223-0.193,0.321 c-0.067,0.086-0.15,0.159-0.243,0.217c-0.088,0.054-0.188,0.082-0.291,0.082c-0.293,0-0.471-0.155-0.438-0.459 c0.037-0.692,0.401-2.777,0.83-4.151c-0.554,0.093-1.56,0.173-1.56,0.173l-0.115,0.57v-0.079c0-0.155-0.078-0.299-0.205-0.386 c-0.199-0.121-0.431-0.175-0.662-0.157c-0.293-0.003-0.584,0.057-0.852,0.176c-0.256,0.116-0.49,0.275-0.692,0.471 c-0.207,0.201-0.386,0.43-0.533,0.679c-0.151,0.255-0.278,0.523-0.379,0.802c-0.099,0.27-0.174,0.548-0.224,0.831 c-0.032,0.183-0.054,0.368-0.065,0.554c-0.045,0.122-0.099,0.242-0.159,0.357c-0.205,0.365-0.471,0.764-0.786,0.83 c-0.73,0.165-0.377-0.617-0.308-1.016c0.023-0.138,0.12-0.532,0.12-0.532c0.017-0.067,0.029-0.137,0.035-0.206 c0.005-0.068,0.008-0.135,0.008-0.201c0.001-0.163-0.023-0.326-0.071-0.482c-0.044-0.146-0.118-0.283-0.217-0.4 c-0.1-0.119-0.226-0.213-0.368-0.276c-0.165-0.07-0.342-0.104-0.521-0.1c-0.12,0-0.239,0.016-0.355,0.047l2.372-1.66l-1.29,0.173 l-2.064,1.641l0.855-4.106l-1.584,0.219c0,0-0.365,1.781-0.746,3.848c-0.114,0.616-0.253,1.264-0.389,1.847 c-0.041,0.137-0.095,0.269-0.162,0.395c-0.083,0.147-0.376,0.554-0.749,0.554c-0.339,0-0.429-0.17-0.435-0.397 c-0.017-0.815,1.136-6.125,1.136-6.125s-0.938,0.138-1.584,0.214c0,0-0.376,1.572-0.692,3.227v-0.028 c-0.231,0.417-0.752,0.575-1.176,0.354c0,0,0-0.008,0-0.011c0-1.139-0.458-1.709-1.375-1.709c-0.336-0.006-0.669,0.062-0.977,0.197 c-0.28,0.126-0.536,0.3-0.755,0.515c-0.218,0.213-0.405,0.457-0.554,0.724c-0.149,0.265-0.273,0.542-0.371,0.83 c-0.092,0.269-0.162,0.544-0.209,0.823c-0.041,0.236-0.063,0.475-0.065,0.714c-0.007,0.267,0.037,0.532,0.128,0.782 c0.076,0.199,0.198,0.379,0.356,0.522c0.157,0.138,0.343,0.237,0.543,0.294c0.225,0.063,0.458,0.094,0.692,0.091 c0.323,0.001,0.643-0.076,0.93-0.224c0.302-0.158,0.567-0.377,0.779-0.645c0.241-0.305,0.431-0.647,0.562-1.014 c0.155-0.431,0.251-0.881,0.285-1.338c0.407,0.166,0.998-0.08,1.115-0.374v-0.028c-0.15,0.78-0.257,1.569-0.318,2.362 c-0.011,0.197,0.02,0.395,0.088,0.579c0.052,0.148,0.135,0.284,0.244,0.397c0.102,0.104,0.226,0.182,0.364,0.229 c0.145,0.05,0.297,0.075,0.45,0.073c0.107-0.001,0.215-0.01,0.321-0.026c0.129-0.02,0.257-0.054,0.379-0.1 c0.146-0.054,0.285-0.124,0.415-0.209c0.102-0.067,0.198-0.144,0.286-0.228c-0.079,0.311-0.13,0.499-0.13,0.499h1.542l0.553-2.644 c0.13-0.109,0.269-0.206,0.415-0.291c0.113-0.067,0.242-0.104,0.374-0.106c0.119-0.014,0.235,0.04,0.303,0.138 c0.061,0.116,0.089,0.246,0.083,0.377c0,0.059-0.003,0.121-0.008,0.188c-0.006,0.069-0.018,0.137-0.035,0.204l-0.089,0.415 c-0.039,0.182-0.06,0.367-0.062,0.553c-0.021,0.336,0.103,0.665,0.34,0.902c0.226,0.211,0.562,0.317,1.009,0.317 c0.144-0.004,0.287-0.023,0.426-0.058c0.188-0.05,0.363-0.139,0.515-0.26c0.209-0.168,0.39-0.37,0.536-0.596 c0.033-0.051,0.066-0.103,0.098-0.158c0.014,0.055,0.029,0.107,0.047,0.156c0.067,0.198,0.175,0.38,0.318,0.533 c0.126,0.132,0.283,0.232,0.456,0.293c0.171,0.06,0.351,0.09,0.533,0.089c0.179,0.002,0.356-0.026,0.525-0.086 c0.154-0.055,0.298-0.13,0.431-0.224c0.129-0.092,0.246-0.197,0.351-0.314c0.103-0.114,0.198-0.234,0.288-0.358 c0.016,0.276,0.132,0.537,0.326,0.734c0.2,0.173,0.459,0.262,0.724,0.248c0.105-0.001,0.21-0.01,0.313-0.026 c0.125-0.02,0.246-0.053,0.361-0.1c0.137-0.055,0.268-0.125,0.388-0.209c0.145-0.102,0.274-0.221,0.39-0.355 c0.109-0.13,0.208-0.269,0.294-0.415c0.015,0.063,0.034,0.126,0.056,0.187c0.066,0.198,0.176,0.38,0.318,0.533 c0.126,0.132,0.282,0.232,0.455,0.293c0.171,0.059,0.352,0.089,0.532,0.088c0.179,0.002,0.354-0.027,0.522-0.086 c0.155-0.054,0.303-0.129,0.437-0.224c0.128-0.091,0.246-0.196,0.351-0.313c0.1-0.113,0.192-0.232,0.276-0.359 c0.024,0.535,0.478,0.947,1.013,0.924c0.012-0.001,0.025-0.002,0.037-0.003c0.105-0.001,0.21-0.008,0.314-0.021 c0.123-0.016,0.244-0.046,0.361-0.089c0.136-0.051,0.266-0.116,0.387-0.196c0.145-0.096,0.275-0.211,0.389-0.341 c0.092-0.104,0.176-0.214,0.25-0.331c0.01,0.038,0.021,0.076,0.037,0.111c0.075,0.199,0.197,0.379,0.355,0.523 c0.156,0.137,0.342,0.237,0.543,0.293c0.226,0.063,0.459,0.094,0.692,0.092c0.323,0,0.642-0.076,0.93-0.225 c0.302-0.158,0.567-0.377,0.778-0.644c0.241-0.304,0.431-0.644,0.563-1.007c0.155-0.432,0.251-0.881,0.285-1.338 c0.394,0.088,0.805-0.036,1.084-0.327l-0.381,1.79c-0.041,0.188-0.063,0.379-0.063,0.57c-0.002,0.162,0.018,0.322,0.059,0.479 c0.036,0.141,0.101,0.271,0.189,0.385c0.088,0.11,0.201,0.197,0.332,0.254c0.154,0.064,0.322,0.096,0.49,0.091 c0.656,0.005,1.286-0.257,1.745-0.727c0.277-0.3,0.452-0.681,0.501-1.086c0,0-0.74,0.794-1.391,0.794 c-0.11,0.015-0.221-0.025-0.295-0.109c-0.053-0.082-0.08-0.179-0.076-0.276c0-0.056,0.003-0.112,0.01-0.167 C46.359,31.891,46.375,31.822,46.393,31.754z M18.225,29.503c-0.065,0.111-0.097,0.239-0.091,0.368 c-0.002,0.099,0.018,0.196,0.059,0.285c0.046,0.087,0.13,0.147,0.227,0.165c-0.038,0.298-0.102,0.591-0.191,0.878 c-0.074,0.245-0.172,0.481-0.294,0.706c-0.094,0.176-0.216,0.335-0.363,0.47c-0.104,0.104-0.242,0.166-0.389,0.174 c-0.087,0.002-0.173-0.01-0.256-0.036c-0.071-0.026-0.131-0.075-0.17-0.139c-0.049-0.08-0.082-0.171-0.094-0.265 c-0.022-0.143-0.032-0.289-0.029-0.434c0.002-0.199,0.02-0.397,0.053-0.594c0.036-0.223,0.085-0.443,0.146-0.662 c0.062-0.221,0.138-0.438,0.227-0.65c0.081-0.196,0.179-0.384,0.293-0.562c0.093-0.147,0.207-0.28,0.338-0.394 c0.102-0.093,0.233-0.146,0.371-0.149c0.062-0.002,0.123,0.009,0.18,0.032c0.049,0.022,0.09,0.06,0.117,0.106 c0.035,0.06,0.06,0.125,0.074,0.194c0.019,0.096,0.031,0.193,0.036,0.291C18.367,29.333,18.282,29.409,18.225,29.503z M31.468,31.545c-0.03,0.146-0.081,0.285-0.153,0.416c-0.061,0.107-0.136,0.207-0.225,0.295c-0.074,0.072-0.16,0.133-0.256,0.176 c-0.079,0.038-0.165,0.059-0.253,0.061c-0.056-0.001-0.112-0.006-0.167-0.016c-0.067-0.013-0.129-0.047-0.176-0.097 c-0.064-0.071-0.111-0.155-0.138-0.248c-0.044-0.154-0.064-0.315-0.058-0.476c0.002-0.189,0.018-0.38,0.047-0.567 c0.067-0.439,0.188-0.869,0.361-1.278c0.08-0.194,0.179-0.379,0.297-0.554c0.1-0.149,0.224-0.281,0.368-0.389 c0.123-0.094,0.271-0.145,0.426-0.146c0.074-0.003,0.148,0.012,0.215,0.044c0.054,0.026,0.102,0.063,0.139,0.109 c0.031,0.042,0.055,0.088,0.07,0.139c0.012,0.038,0.02,0.078,0.021,0.117L31.468,31.545z M37.209,31.545v0.059 c-0.031,0.138-0.082,0.27-0.154,0.392c-0.061,0.103-0.137,0.196-0.225,0.276c-0.074,0.069-0.161,0.125-0.256,0.165 c-0.076,0.034-0.159,0.053-0.243,0.056c-0.056-0.001-0.112-0.006-0.167-0.016c-0.068-0.013-0.129-0.047-0.176-0.097 c-0.064-0.071-0.111-0.155-0.139-0.248c-0.045-0.154-0.064-0.315-0.059-0.476c0.002-0.189,0.018-0.38,0.048-0.567 c0.067-0.439,0.188-0.869,0.36-1.278c0.08-0.194,0.18-0.379,0.298-0.554c0.101-0.149,0.224-0.281,0.368-0.389 c0.123-0.094,0.271-0.145,0.426-0.146c0.071-0.003,0.142,0.01,0.207,0.039c0.049,0.023,0.094,0.057,0.129,0.1 c0.029,0.037,0.053,0.079,0.07,0.123c0.014,0.036,0.025,0.072,0.034,0.109L37.209,31.545z M43.063,29.499 c-0.065,0.111-0.097,0.239-0.091,0.368c-0.005,0.102,0.015,0.202,0.057,0.295c0.047,0.086,0.13,0.147,0.227,0.165 c-0.038,0.298-0.102,0.591-0.191,0.878c-0.073,0.244-0.172,0.48-0.294,0.705c-0.095,0.177-0.218,0.336-0.364,0.471 c-0.104,0.104-0.242,0.166-0.389,0.174c-0.086,0.002-0.174-0.01-0.256-0.037c-0.07-0.025-0.131-0.074-0.17-0.138 c-0.05-0.081-0.082-0.171-0.094-0.265c-0.021-0.144-0.031-0.289-0.029-0.434c0.002-0.199,0.02-0.398,0.053-0.594 c0.035-0.224,0.084-0.444,0.146-0.662c0.063-0.221,0.138-0.438,0.227-0.65c0.081-0.195,0.18-0.383,0.293-0.562 c0.093-0.147,0.207-0.281,0.338-0.395c0.102-0.093,0.233-0.146,0.371-0.149c0.062-0.002,0.123,0.009,0.18,0.032 c0.049,0.023,0.09,0.06,0.117,0.106c0.035,0.06,0.061,0.125,0.074,0.194c0.02,0.096,0.031,0.193,0.035,0.291 c-0.098,0.045-0.182,0.118-0.239,0.21V29.499z"></path> <circle fill="#D85DA1" cx="49.555" cy="32.645" r="0.887"></circle> </svg> 