<?xml version="1.0" encoding="UTF-8"?> <!-- Generator: Adobe Illustrator 16.0.0, SVG Export Plug-In . SVG Version: 6.00 Build 0) --> <svg xmlns="http://www.w3.org/2000/svg" xmlns:xlink="http://www.w3.org/1999/xlink" id="Layer_1" x="0px" y="0px" width="60px" height="60px" viewBox="0 0 60 60" xml:space="preserve"> <path id="path3" d="M59.354,29.27l-2.498-1.546c-0.021-0.244-0.045-0.487-0.07-0.728l2.146-2.003 c0.217-0.204,0.315-0.504,0.258-0.796c-0.059-0.293-0.265-0.534-0.543-0.638L55.9,22.532c-0.068-0.238-0.143-0.475-0.215-0.709 l1.713-2.377c0.174-0.242,0.209-0.557,0.096-0.833c-0.113-0.274-0.361-0.471-0.655-0.52l-2.896-0.471 c-0.112-0.219-0.229-0.436-0.348-0.649l1.215-2.67c0.125-0.272,0.101-0.588-0.065-0.834c-0.165-0.248-0.445-0.393-0.744-0.382 l-2.938,0.103c-0.149-0.19-0.307-0.378-0.463-0.563l0.674-2.862c0.068-0.291-0.019-0.595-0.229-0.805 c-0.209-0.21-0.516-0.297-0.805-0.23l-2.861,0.675c-0.186-0.157-0.373-0.312-0.564-0.464l0.104-2.938 c0.011-0.297-0.133-0.58-0.382-0.745c-0.248-0.167-0.563-0.191-0.834-0.068l-2.669,1.217c-0.218-0.119-0.433-0.236-0.65-0.349 l-0.473-2.895c-0.048-0.294-0.244-0.543-0.519-0.656c-0.275-0.115-0.59-0.078-0.832,0.096L38.18,4.315 c-0.234-0.074-0.47-0.146-0.707-0.214l-1.025-2.745c-0.104-0.28-0.346-0.485-0.639-0.543s-0.593,0.04-0.797,0.257L33.01,3.218 c-0.242-0.026-0.484-0.051-0.729-0.071l-1.547-2.499c-0.156-0.253-0.435-0.407-0.732-0.407c-0.297,0-0.575,0.154-0.731,0.407 l-1.546,2.499c-0.243,0.02-0.487,0.044-0.728,0.071L24.993,1.07c-0.203-0.217-0.504-0.315-0.795-0.257 c-0.293,0.059-0.534,0.264-0.638,0.543l-1.027,2.745c-0.237,0.068-0.472,0.14-0.708,0.214l-2.378-1.712 c-0.242-0.174-0.558-0.211-0.832-0.096c-0.275,0.113-0.474,0.362-0.521,0.656l-0.472,2.895c-0.218,0.113-0.435,0.229-0.65,0.349 L14.304,5.19c-0.272-0.124-0.587-0.099-0.834,0.068c-0.248,0.165-0.394,0.447-0.382,0.745l0.102,2.938 c-0.189,0.152-0.377,0.307-0.564,0.464L9.766,8.73C9.475,8.663,9.17,8.75,8.96,8.96c-0.214,0.209-0.3,0.513-0.232,0.804l0.674,2.862 c-0.157,0.186-0.311,0.373-0.462,0.563l-2.938-0.103c-0.295-0.009-0.579,0.134-0.744,0.382c-0.167,0.247-0.192,0.563-0.068,0.834 l1.218,2.67c-0.119,0.214-0.236,0.43-0.35,0.649l-2.894,0.471c-0.294,0.048-0.543,0.245-0.657,0.52 c-0.114,0.276-0.077,0.59,0.097,0.833l1.712,2.377c-0.075,0.234-0.147,0.471-0.215,0.709l-2.745,1.026 c-0.278,0.104-0.484,0.345-0.542,0.638c-0.059,0.292,0.039,0.593,0.257,0.796l2.147,2.003c-0.026,0.241-0.05,0.485-0.071,0.728 L0.648,29.27c-0.252,0.157-0.407,0.433-0.407,0.731c0,0.299,0.155,0.576,0.407,0.731l2.498,1.547 c0.021,0.242,0.045,0.486,0.071,0.728L1.07,35.011c-0.218,0.202-0.316,0.505-0.257,0.796C0.87,36.1,1.076,36.34,1.355,36.445 L4.1,37.473c0.068,0.235,0.141,0.473,0.215,0.707l-1.712,2.379c-0.173,0.242-0.211,0.558-0.097,0.832 c0.114,0.274,0.362,0.471,0.657,0.52l2.894,0.472c0.114,0.222,0.23,0.437,0.35,0.651L5.188,45.7 c-0.124,0.271-0.098,0.587,0.068,0.834C5.421,46.783,5.705,46.928,6,46.916l2.937-0.104c0.153,0.189,0.307,0.379,0.464,0.563 l-0.674,2.86c-0.068,0.289,0.018,0.595,0.229,0.805c0.21,0.212,0.515,0.298,0.806,0.229l2.86-0.674 c0.187,0.157,0.375,0.313,0.564,0.463l-0.102,2.938c-0.012,0.298,0.134,0.579,0.382,0.746c0.247,0.166,0.563,0.19,0.834,0.065 l2.669-1.216c0.214,0.118,0.431,0.234,0.649,0.349l0.472,2.894c0.047,0.295,0.244,0.543,0.521,0.656 c0.274,0.114,0.589,0.077,0.832-0.095l2.377-1.715c0.234,0.073,0.471,0.146,0.709,0.217l1.027,2.744 c0.103,0.276,0.344,0.483,0.637,0.541c0.292,0.061,0.594-0.039,0.796-0.257l2.003-2.147c0.242,0.027,0.485,0.052,0.729,0.072 l1.546,2.498c0.156,0.252,0.433,0.406,0.731,0.406c0.297,0,0.576-0.152,0.732-0.406l1.547-2.498 c0.242-0.021,0.484-0.045,0.728-0.072l2.003,2.147c0.202,0.218,0.504,0.315,0.795,0.257c0.295-0.059,0.535-0.265,0.639-0.541 l1.027-2.744c0.237-0.069,0.473-0.144,0.709-0.217l2.377,1.715c0.242,0.172,0.559,0.209,0.832,0.095 c0.274-0.113,0.473-0.361,0.521-0.656l0.473-2.894c0.219-0.112,0.436-0.23,0.648-0.349l2.671,1.216 c0.271,0.125,0.586,0.101,0.834-0.065c0.248-0.167,0.394-0.447,0.381-0.746l-0.104-2.938c0.19-0.149,0.379-0.306,0.564-0.463 l2.859,0.674c0.291,0.068,0.597-0.018,0.807-0.229c0.211-0.21,0.298-0.516,0.229-0.805l-0.67-2.859 c0.156-0.188,0.313-0.374,0.463-0.563L54,46.917c0.297,0.013,0.58-0.133,0.746-0.382c0.166-0.247,0.191-0.563,0.066-0.834 l-1.217-2.669c0.117-0.216,0.234-0.433,0.348-0.651l2.896-0.472c0.294-0.048,0.541-0.243,0.655-0.519 c0.113-0.276,0.076-0.591-0.098-0.832l-1.713-2.379c0.073-0.234,0.146-0.473,0.215-0.707l2.744-1.027 c0.28-0.104,0.486-0.346,0.543-0.639c0.061-0.293-0.039-0.595-0.256-0.797l-2.147-2.004c0.024-0.24,0.051-0.484,0.069-0.729 l2.5-1.547c0.252-0.154,0.406-0.434,0.406-0.73C59.76,29.704,59.605,29.426,59.354,29.27L59.354,29.27z M42.629,49.998 c-0.954-0.205-1.561-1.146-1.355-2.104c0.203-0.957,1.146-1.564,2.1-1.357c0.954,0.203,1.563,1.146,1.355,2.102 C44.523,49.593,43.582,50.202,42.629,49.998z M41.779,44.256c-0.87-0.188-1.727,0.367-1.912,1.24l-0.889,4.14 c-2.736,1.242-5.776,1.933-8.979,1.933c-3.276,0-6.382-0.725-9.167-2.02l-0.887-4.141c-0.187-0.87-1.042-1.426-1.913-1.238 l-3.655,0.784c-0.679-0.698-1.31-1.442-1.89-2.228H30.27c0.202,0,0.335-0.035,0.335-0.221v-6.29c0-0.184-0.133-0.221-0.335-0.221 h-5.2V32.01h5.625c0.514,0,2.746,0.147,3.459,3c0.225,0.877,0.715,3.731,1.05,4.646c0.335,1.023,1.696,3.07,3.146,3.07h8.862 c0.101,0,0.208-0.012,0.32-0.031c-0.615,0.836-1.289,1.627-2.015,2.365L41.779,44.256L41.779,44.256z M17.185,49.912 c-0.954,0.206-1.895-0.403-2.099-1.357c-0.205-0.957,0.402-1.896,1.356-2.104c0.956-0.204,1.895,0.404,2.099,1.359 C18.746,48.766,18.138,49.707,17.185,49.912z M10.438,22.556c0.396,0.894-0.007,1.94-0.898,2.336 c-0.893,0.396-1.936-0.007-2.333-0.901c-0.396-0.894,0.008-1.939,0.899-2.336C8.999,21.26,10.042,21.663,10.438,22.556z M8.365,27.471l3.807-1.691c0.813-0.361,1.18-1.314,0.82-2.13l-0.785-1.773h3.084v13.9H9.069c-0.54-1.896-0.83-3.898-0.83-5.968 C8.24,29.019,8.283,28.239,8.365,27.471z M25.072,26.122v-4.097h7.345c0.378,0,2.679,0.438,2.679,2.158 c0,1.426-1.764,1.939-3.215,1.939H25.072L25.072,26.122z M51.762,29.809c0,0.544-0.021,1.082-0.061,1.616h-2.232 c-0.223,0-0.313,0.146-0.313,0.365v1.024c0,2.414-1.36,2.938-2.555,3.071c-1.137,0.13-2.396-0.475-2.549-1.17 c-0.672-3.768-1.787-4.573-3.55-5.963c2.188-1.389,4.464-3.439,4.464-6.183c0-2.961-2.029-4.828-3.414-5.743 c-1.941-1.28-4.094-1.537-4.673-1.537H13.79c3.131-3.495,7.375-5.97,12.174-6.87l2.722,2.855c0.615,0.645,1.634,0.668,2.279,0.052 l3.045-2.913c6.381,1.188,11.782,5.16,14.896,10.609l-2.084,4.708c-0.359,0.814,0.008,1.768,0.82,2.129l4.014,1.783 C51.725,28.359,51.762,29.08,51.762,29.809z M28.687,5.994c0.705-0.675,1.823-0.649,2.499,0.058 c0.676,0.708,0.649,1.828-0.058,2.502c-0.706,0.675-1.825,0.649-2.5-0.058C27.956,7.789,27.98,6.669,28.687,5.994z M49.376,22.643 c0.396-0.894,1.438-1.296,2.331-0.901c0.893,0.396,1.295,1.442,0.898,2.336s-1.438,1.297-2.332,0.901 C49.383,24.583,48.98,23.537,49.376,22.643z"></path> </svg> 