<?xml version="1.0" encoding="UTF-8"?> <!-- Generator: Adobe Illustrator 16.0.0, SVG Export Plug-In . SVG Version: 6.00 Build 0) --> <svg xmlns="http://www.w3.org/2000/svg" xmlns:xlink="http://www.w3.org/1999/xlink" id="Layer_1" x="0px" y="0px" width="60px" height="60px" viewBox="276 276 60 60" xml:space="preserve"> <g> <path fill="#654FF0" d="M312.864,276c0,0.106,0,0.212,0,0.324c0,3.8-3.08,6.879-6.879,6.879c-3.801,0-6.88-3.081-6.88-6.879l0,0 c0-0.112,0-0.218,0-0.324H276v60h60v-60H312.864z"></path> <path fill="#FFFFFF" d="M289.938,308.334h3.976l2.715,14.458h0.049l3.263-14.458h3.72l2.948,14.636h0.059l3.094-14.636h3.9 l-5.068,21.244h-3.947l-2.923-14.458h-0.076l-3.129,14.458h-4.019L289.938,308.334z M318.143,308.334h6.27l6.225,21.244h-4.102 l-1.354-4.728h-7.143l-1.045,4.728H313L318.143,308.334z M320.53,313.57l-1.734,7.794h5.398l-1.992-7.794H320.53z"></path> </g> </svg> 