<?xml version="1.0" encoding="UTF-8"?> <!-- Generator: Adobe Illustrator 16.0.0, SVG Export Plug-In . SVG Version: 6.00 Build 0) --> <svg xmlns="http://www.w3.org/2000/svg" xmlns:xlink="http://www.w3.org/1999/xlink" id="Layer_1" x="0px" y="0px" width="60px" height="60px" viewBox="0 0 60 60" xml:space="preserve"> <g> <polygon fill="#468C4C" points="-104.782,1.483 -93.032,17.76 -93.032,8.366 "></polygon> <polygon fill="#4EB757" points="-93.032,-20.482 -93.032,5.983 -81.282,-0.9 "></polygon> <polygon fill="#468C4C" points="-104.782,-0.9 -93.032,5.983 -93.032,-20.482 "></polygon> <polygon fill="#3E7C4C" points="-104.782,-0.9 -93.032,5.983 -93.032,-6.228 "></polygon> <polygon fill="#407A3A" points="-93.032,-6.228 -93.032,5.983 -81.282,-0.9 "></polygon> <polygon fill="#468C4C" points="-93.032,8.366 -93.032,17.76 -81.282,1.483 "></polygon> </g> <g> <polygon fill="#8B8B8B" points="11.785,34.394 29.987,59.609 29.987,45.056 "></polygon> <polygon fill="#333333" points="29.987,0.367 29.987,41.365 48.189,30.702 "></polygon> <polygon fill="#8B8B8B" points="11.785,30.702 29.987,41.365 29.987,0.367 "></polygon> <polygon fill="#383838" points="11.785,30.702 29.987,41.365 29.987,22.449 "></polygon> <polygon fill="#151515" points="29.987,22.449 29.987,41.365 48.189,30.702 "></polygon> <polygon fill="#333333" points="29.987,45.056 29.987,59.609 48.189,34.394 "></polygon> </g> <g> <polygon fill="#8BBCE5" points="-139.681,1.484 -127.931,17.759 -127.931,8.367 "></polygon> <polygon fill="#7CB2E0" points="-127.931,-20.483 -127.931,5.983 -116.181,-0.901 "></polygon> <polygon fill="#8BBCE5" points="-139.681,-0.901 -127.931,5.983 -127.931,-20.483 "></polygon> <polygon fill="#77AEDD" points="-139.681,-0.901 -127.931,5.983 -127.931,-6.227 "></polygon> <polygon fill="#5B95CF" points="-127.931,-6.227 -127.931,5.983 -116.181,-0.901 "></polygon> <polygon fill="#7CB2E0" points="-127.931,8.367 -127.931,17.759 -116.181,1.484 "></polygon> </g> <g> <polygon opacity="0.3" fill="#FFFFFF" points="-139.681,84.344 -127.931,100.621 -127.931,91.227 "></polygon> <polygon opacity="0.7" fill="#FFFFFF" points="-127.931,62.378 -127.931,88.844 -116.181,81.96 "></polygon> <polygon opacity="0.3" fill="#FFFFFF" points="-139.681,81.96 -127.931,88.844 -127.931,62.378 "></polygon> <polygon opacity="0.3" fill="#FFFFFF" points="-139.681,81.96 -127.931,88.844 -127.931,76.633 "></polygon> <polygon opacity="0.7" fill="#FFFFFF" points="-127.931,76.633 -127.931,88.844 -116.181,81.96 "></polygon> <polygon opacity="0.9" fill="#FFFFFF" points="-127.931,91.227 -127.931,100.621 -116.181,84.344 "></polygon> </g> <g> <polygon opacity="0.6" fill="#FFFFFF" points="-108.681,84.344 -96.931,100.621 -96.931,91.227 "></polygon> <polygon opacity="0.8" fill="#FFFFFF" points="-96.931,62.378 -96.931,88.844 -85.181,81.96 "></polygon> <polygon opacity="0.5" fill="#FFFFFF" points="-108.681,81.96 -96.931,88.844 -96.931,62.378 "></polygon> <polygon opacity="0.3" fill="#FFFFFF" points="-108.681,81.96 -96.931,88.844 -96.931,76.633 "></polygon> <polygon fill="#FFFFFF" points="-96.931,76.633 -96.931,88.844 -85.181,81.96 "></polygon> <polygon fill="#FFFFFF" points="-96.931,91.227 -96.931,100.621 -85.181,84.344 "></polygon> </g> </svg> 