<?xml version="1.0" encoding="UTF-8"?> <!-- Generator: Adobe Illustrator 16.0.0, SVG Export Plug-In . SVG Version: 6.00 Build 0) --> <svg xmlns="http://www.w3.org/2000/svg" xmlns:xlink="http://www.w3.org/1999/xlink" id="svg4525" x="0px" y="0px" width="60px" height="60px" viewBox="1069.5 1220 60 60" xml:space="preserve"> <g> <polygon fill="#E5A329" points="1078.004,1273.946 1073.104,1220 1125.897,1220.021 1121.037,1273.905 1099.459,1280 "></polygon> <polygon fill="#F1BF22" points="1117.064,1271.002 1121.161,1224.798 1099.541,1224.798 1099.706,1275.758 "></polygon> <path id="path5157" fill="#FFFFFF" d="M1081.559,1262.766l-0.021-6.321c0,0,6.507,1.833,10.192,2.78v-27.632h5.312v35.353 L1081.559,1262.766L1081.559,1262.766z"></path> <polygon fill="#FFFFFF" points="1115.951,1263.239 1117.372,1245.964 1107.198,1247.138 1107.198,1237.913 1118.073,1237.872 1118.526,1231.571 1101.848,1231.654 1101.848,1254.592 1112.06,1252.841 1111.916,1257.947 1101.848,1260.687 1101.724,1266.945 1115.951,1263.239 "></polygon> </g> </svg> 