<?xml version="1.0"?>
<svg xmlns="http://www.w3.org/2000/svg" xmlns:xlink="http://www.w3.org/1999/xlink" viewBox="0 0 578.31 198.77" width="578.31" height="198.77"><defs><style>.cls-1{fill:#fff;}.cls-2{mask:url(#mask);}.cls-3{fill:#282828;}.cls-4{mask:url(#mask-2-2);}</style><mask id="mask" x="162.96" y="154.5" width="27.36" height="44.26" maskUnits="userSpaceOnUse"><g id="mask-2"><polygon id="path-1" class="cls-1" points="162.96 154.5 190.32 154.5 190.32 198.77 162.96 198.77 162.96 154.5"></polygon></g></mask><mask id="mask-2-2" x="283.93" y="154.54" width="29.03" height="44.1" maskUnits="userSpaceOnUse"><g id="mask-4"><polygon id="path-3" class="cls-1" points="283.94 154.54 312.96 154.54 312.96 198.64 283.94 198.64 283.94 154.54"></polygon></g></mask></defs><title>logo-parity-substrate-4</title><g id="Layer_2" data-name="Layer 2"><g id="Layer_1-2" data-name="Layer 1"><g id="Variation-2"><g id="Logotype"><g id="Group-3"><g class="cls-2"><path id="Fill-1" class="cls-3" d="M176.66,159.36a23.39,23.39,0,0,0-3.16.22,5.81,5.81,0,0,0-5.13,5.82v12.43c0,3,2.5,5.46,6,5.73.79.06,1.59.09,2.35.09s1.44,0,2.12-.08c3.58-.28,5.77-2.26,6.16-5.57a70.42,70.42,0,0,0,0-13.07,5.85,5.85,0,0,0-5-5.34A24.47,24.47,0,0,0,176.66,159.36Zm-9.1,39.41c-1.59,0-4.6-.86-4.6-4.13v-31c0-3.13,2.35-5.83,3.93-6.89a16.09,16.09,0,0,1,6.12-2,35.37,35.37,0,0,1,4.09-.27,20.44,20.44,0,0,1,4.64.5c4.54,1.05,7.3,4,8.2,8.69a20,20,0,0,1,.33,3.64v1.17c0,2.65.08,5.39,0,8.09a16.86,16.86,0,0,1-1,4.9c-1.36,3.68-4.16,5.93-8.32,6.7a20,20,0,0,1-3.58.32,24.22,24.22,0,0,1-3.12-.22,8.37,8.37,0,0,1-6.07-3.45v13.93Z"></path></g></g><g id="Group-6"><g class="cls-4"><path id="Fill-4" class="cls-3" d="M291.57,198.64a3.66,3.66,0,0,1-.65,0l-.78-.11,4.6-11.09a4.3,4.3,0,0,0,.45-2.76c-2.77-6.85-5.41-13.44-8.1-20.17l-2.62-6.56c-.47-1.17-.74-2-.34-2.57s1.28-.6,2.47-.6a2.54,2.54,0,0,1,2.69,2c.63,1.58,7.78,19.61,9.11,22.91l9.14-22.72a3.3,3.3,0,0,1,3-2.39,3.61,3.61,0,0,1,1.42.31,1.33,1.33,0,0,1,.93,1.75l-15.35,38a6.31,6.31,0,0,1-6,4"></path></g></g><path id="Fill-7" class="cls-3" d="M209.22,172.78c-2,0-3.81.06-5.11.18-3.33.3-4.6,1.54-4.7,4.59,0,.75,0,1.35,0,1.88a4.05,4.05,0,0,0,4.21,4.13c.94,0,1.72.05,2.45.05s1.53,0,2.22-.06a8.29,8.29,0,0,0,6.7-3.89c1-1.53,1-3.21,1-5,0-.3,0-.6,0-.91a4.35,4.35,0,0,0,0-.71,5.71,5.71,0,0,0-.78-.08C213.5,172.85,211.3,172.78,209.22,172.78Zm11.2,15.68c-1.54,0-4.45-.87-4.45-4.16v-.21l-.08.08a10.75,10.75,0,0,1-8.31,4.26c-.47,0-1,0-1.43,0a28.07,28.07,0,0,1-4.37-.31,8.32,8.32,0,0,1-7.07-6.2,12.81,12.81,0,0,1,0-7.36,7.75,7.75,0,0,1,6.91-5.9,68.34,68.34,0,0,1,7.88-.41c2,0,4,.06,5.7.19l.39,0a.81.81,0,0,0,.37-.05,4.32,4.32,0,0,0,0-.89,33.88,33.88,0,0,0-.54-5c-.3-1.49-1.33-2.41-3.14-2.82a16.14,16.14,0,0,0-3.64-.42,11.14,11.14,0,0,0-8.55,3.5,2.69,2.69,0,0,1-1.8,1.13,1.42,1.42,0,0,1-.74-.22,12,12,0,0,1-2-1.55c-.34-.33-.5-1,.21-2a14.4,14.4,0,0,1,6.62-4.68,20.49,20.49,0,0,1,6.34-.92,24,24,0,0,1,5,.51,8.34,8.34,0,0,1,6.71,6.37A23.17,23.17,0,0,1,221,166c.25,6,0,21.67,0,21.83v.6Z"></path><path id="Fill-9" class="cls-3" d="M232.35,188.46c-1.57,0-4.52-.85-4.52-4.08V154.62h.62c1.59,0,4.6.81,4.6,3.89v.06l.05,0a15.92,15.92,0,0,1,2.93-2.36,10.72,10.72,0,0,1,5.73-1.49,16.12,16.12,0,0,1,2,.13,13.62,13.62,0,0,1,3.13.67,1.49,1.49,0,0,1,1.05,2,5.89,5.89,0,0,1-.67,1.4l0,.07a1.46,1.46,0,0,1-1.31.85,4.64,4.64,0,0,1-1-.15,15.23,15.23,0,0,0-3.28-.38,9.67,9.67,0,0,0-3.74.67,17,17,0,0,0-2.9,1.57,4.44,4.44,0,0,0-2,4.13c0,3.28,0,7.63,0,11.83,0,3.93,0,7.72,0,10.39v.61Z"></path><path id="Fill-11" class="cls-3" d="M256.62,188c-1.56,0-4.52-.76-4.52-3.68V154.52h.64a4.41,4.41,0,0,1,4.5,4.49v29Z"></path><path id="Fill-13" class="cls-3" d="M272,188c-1.5,0-4.33-.76-4.33-3.68V160h-3.78c-.77,0-1.18-.86-1.18-1.49v-2.45c0-.64.39-1,1.18-1h3.78v-9.2h.62c1.5,0,4.34.56,4.34,3.68v5.52H280c1.08,0,1.31.53,1.31,1v2.45A1.54,1.54,0,0,1,280,160h-7.37v28Z"></path><path id="Fill-15" class="cls-3" d="M254.66,148.07a3.53,3.53,0,1,1,3.56-3.52,3.55,3.55,0,0,1-3.56,3.52"></path></g></g><path class="cls-3" d="M360.7,178.67c0,6.82-5.18,9.45-11.14,9.45h-2.63c-6,0-9.9-3-10.89-8.14-.13-.59.2-1,.86-1h1.64a.9.9,0,0,1,.92.92c.85,3.54,3.14,5.05,7.47,5.05h2.63c4.45,0,7.93-1.38,7.93-6.3s-4.26-5.44-9.12-6c-7.08-.79-11.8-2-11.8-9.12,0-6.23,4.2-8.72,10.69-8.72h1.9c6.1,0,10.23,2.75,10.5,8.72,0,.66-.2,1-.92,1h-1.45a.94.94,0,0,1-1-1c-.33-3.93-2.75-5.77-7.28-5.77h-1.64c-4.72,0-7.61,1.38-7.61,5.84,0,4.72,3.41,5.51,8.59,6.1C355.13,170.54,360.7,171.33,360.7,178.67Z"></path><path class="cls-3" d="M367.26,176.44V156a.87.87,0,0,1,1-1h1.24a.87.87,0,0,1,1,1v20.27c0,5.7,1.31,8.65,7.21,8.65h1.05a11.22,11.22,0,0,0,9.64-5.11V156a.86.86,0,0,1,1-1h1.25a.86.86,0,0,1,1,1V186.8a.87.87,0,0,1-1,1h-1.25a.87.87,0,0,1-1-1v-4.13a12.06,12.06,0,0,1-10.17,5.38h-.52C370,188.05,367.26,184.05,367.26,176.44Z"></path><path class="cls-3" d="M425.57,166.67v9.38c0,7.67-4.79,12.07-11.61,12.07H411.6c-4.92,0-7.61-2-8.92-5.38v4.06a.88.88,0,0,1-1,1h-1.24a.88.88,0,0,1-1-1V142.86a.87.87,0,0,1,1-1h1.24a.87.87,0,0,1,1,1v16.86c1.31-3.28,4-5,8.92-5H414C420.78,154.73,425.57,158.87,425.57,166.67Zm-3.22.2c0-6.1-3-9-8.46-9h-2.75c-5.45,0-8.46,2.89-8.46,9v9.44c0,5.64,3,8.66,8.46,8.66h2.75c5.44,0,8.46-3,8.46-8.66Z"></path><path class="cls-3" d="M455.86,178.67c0,6.82-5.18,9.45-11.15,9.45h-2.62c-6,0-9.9-3-10.89-8.14-.13-.59.2-1,.86-1h1.64a.9.9,0,0,1,.92.92c.85,3.54,3.14,5.05,7.47,5.05h2.62c4.46,0,7.94-1.38,7.94-6.3s-4.26-5.44-9.12-6c-7.08-.79-11.8-2-11.8-9.12,0-6.23,4.2-8.72,10.69-8.72h1.9c6.1,0,10.23,2.75,10.49,8.72,0,.66-.19,1-.91,1h-1.45a.94.94,0,0,1-1-1c-.33-3.93-2.76-5.77-7.28-5.77h-1.64c-4.72,0-7.61,1.38-7.61,5.84,0,4.72,3.41,5.51,8.59,6.1C450.29,170.54,455.86,171.33,455.86,178.67Z"></path><path class="cls-3" d="M468.52,158.08v19.41c0,5.18,1.25,7.28,5.64,7.41.59-.06.85.4.85,1L475,187a.87.87,0,0,1-.92.92c-6.43-.13-8.72-3.48-8.72-10.3V158.08h-3.54a.88.88,0,0,1-1-1v-1c0-.73.33-1.05,1-1.05h3.54v-3.81a.86.86,0,0,1,1-1h1.25a.87.87,0,0,1,1,1V155H474c.72,0,1.05.32,1.05,1v1.11a.88.88,0,0,1-1,1Z"></path><path class="cls-3" d="M498.62,158.34a9.6,9.6,0,0,0-3.34-.52h-.79a11.24,11.24,0,0,0-9.64,5.18v23.8a.87.87,0,0,1-1,1h-1.25a.87.87,0,0,1-1-1V156a.86.86,0,0,1,1-1h1.25a.86.86,0,0,1,1,1v4.13a12.25,12.25,0,0,1,10.69-5.38,17.94,17.94,0,0,1,4.26.53.9.9,0,0,1,.59,1.24l-.52,1.38A.86.86,0,0,1,498.62,158.34Z"></path><path class="cls-3" d="M528.33,187.79h-2.1c-.72,0-1.05-.66-1.05-1.58v-3.93a11,11,0,0,1-9.9,5.84h-3c-5.9,0-9.51-3.28-9.51-9.78s3.74-9.44,9.38-9.44h13v-2c0-7-1.7-9.05-8-9.05h-1.24a16.64,16.64,0,0,0-8.14,1.77c-.59.33-1.18.46-1.37-.07l-.72-1.38c-.2-.39-.13-.72.52-1.11,2.62-1.71,6.1-2.3,9.71-2.3h1.24c8.14,0,11.22,3.74,11.22,12.07v19.41a4.31,4.31,0,0,0,.13,1C528.59,187.46,528.66,187.79,528.33,187.79Zm-3.15-10.1v-5.84H512.26c-4.06,0-6.29,1.58-6.29,6.49s2.23,6.63,6.29,6.63H515A10,10,0,0,0,525.18,177.69Z"></path><path class="cls-3" d="M541.58,158.08v19.41c0,5.18,1.25,7.28,5.64,7.41.59-.06.85.4.85,1L548,187a.87.87,0,0,1-.92.92c-6.43-.13-8.72-3.48-8.72-10.3V158.08h-3.54a.88.88,0,0,1-1-1v-1c0-.73.33-1.05,1-1.05h3.54v-3.81a.86.86,0,0,1,1-1h1.25a.87.87,0,0,1,1,1V155h5.51c.72,0,1,.32,1,1v1.11a.88.88,0,0,1-1,1Z"></path><path class="cls-3" d="M578.31,166.6v4.14a2,2,0,0,1-2.17,2H556.27v3.87c0,5.31,3,8.33,8.46,8.33h2.17c4.59,0,5.83-1.9,7.87-4.33.45-.53.72-.66,1.37-.2l.86.59c.65.46.59.86.19,1.38-2.36,2.89-4.72,5.71-10.29,5.71h-2.17c-6.88,0-11.8-4.33-11.8-11.68v-9.77c0-7.8,4.92-11.94,11.8-11.94h2.17C572.54,154.73,578.31,158.93,578.31,166.6Zm-3.35.27c0-6.1-3.47-9.05-8.06-9.05h-2.17c-5.44,0-8.46,3-8.46,9v3H575Z"></path><polygon class="cls-3" points="81.52 184.21 79.07 185.62 79.51 185.88 81.52 184.72 81.52 186.99 162.96 139.97 162.96 134.89 81.52 181.91 81.52 184.21"></polygon><polygon class="cls-3" points="81.52 168.76 65.69 177.9 66.47 178.34 81.52 169.66 81.52 171.56 162.96 124.54 162.96 119.82 81.52 166.84 81.52 168.76"></polygon><polygon class="cls-3" points="81.52 153.31 52.32 170.18 53.42 170.81 81.52 154.59 81.52 156.12 162.96 109.1 162.96 104.76 81.52 151.78 81.52 153.31"></polygon><path class="cls-3" d="M163,45.88l-1.2-.69L96.55,82.84,88.09,78,107.9,66.52V63.65l42.92-24.78-2.1-1.21L107.9,61.22V58.76L81.37,74.08,72.22,68.8l65.22-37.65-1.77-1L70.46,67.78l-8.91-5.14L76,54.29l-2.7-1.56,50.75-29.3-1.43-.83L71.87,51.9,69.3,50.42,54.8,58.76v3L41.21,69.6l-1-.57L0,92.25v4L43.65,71l-1-.57,12.15-7V66.5l8.94,5.16-9.46,5.46-.66-.38L0,107.7v3.57L56.71,78.52l-.66-.38,9.46-5.46L74.66,78,54.8,89.42V91.5L0,123.14v3.19L54.8,94.69v2.44L63.31,102,0,138.59V140l1.24.71,64.5-37.23,8.79,5.07L54.8,119.81v2.59L12.18,147l2.1,1.22,40.52-23.4v3l26.57-15.34,8,4.63-7.87,4.55v.77l-56,32.31,1.77,1,54.19-31.29v.76l11-6.33,8.7,5L87,132.12l1.25.72-6.72,3.88v1.15L38.94,162.45l1.44.83,41.14-23.75v1.14l10.14-5.86,2,1.18,14.2-8.18v-2.37L163,93.65v-4L107.9,121.48V120l-8.7-5L163,78.2V74.63l-66.85,38.6-8-4.63L107.9,97.15V94.54L163,62.76V59.57L107.9,91.35V89.4L99,84.25l64-36.94ZM61.55,93.28,81.37,81.84l8.46,4.88-9.44,5.46h0L70,98.17Zm39.64,0L81.28,104.67l-8.83-5.1,9.11-5.26h0l10.7-6.18Z"></path><polygon class="cls-3" points="29.25 62.72 110.68 15.7 109.58 15.06 28.14 62.08 26.82 61.32 0 76.8 0 81.14 30.58 63.48 29.25 62.72"></polygon><polygon class="cls-3" points="15.85 55.01 97.31 7.98 96.53 7.53 15.08 54.56 13.42 53.61 0 61.36 0 66.08 17.51 55.96 15.85 55.01"></polygon><polygon class="cls-3" points="2.45 47.3 83.93 0.26 83.49 0 2.01 47.04 0.02 45.9 0 45.91 0 51.01 4.45 48.44 2.45 47.3"></polygon></g></g></svg>