<?xml version="1.0" encoding="UTF-8"?> <!-- Generator: Adobe Illustrator 16.0.0, SVG Export Plug-In . SVG Version: 6.00 Build 0) --> <svg xmlns="http://www.w3.org/2000/svg" xmlns:xlink="http://www.w3.org/1999/xlink" id="Layer_1" x="0px" y="0px" width="60px" height="60px" viewBox="98 98 60 60" xml:space="preserve"> <g> <polygon fill="#007ACC" points="98,128 98,158 128,158 158,158 158,128 158,98 128,98 98,98 "></polygon> <path fill="#FFFFFF" d="M111.268,128.199l-0.019,2.457h3.905h3.905v11.095v11.096h2.762h2.762v-11.096v-11.095h3.905h3.904v-2.41 c0-1.333-0.028-2.447-0.066-2.476c-0.028-0.038-4.78-0.058-10.542-0.048l-10.486,0.029L111.268,128.199z"></path> <path fill="#FFFFFF" d="M146.414,125.682c1.523,0.381,2.686,1.057,3.752,2.162c0.553,0.59,1.372,1.666,1.438,1.924 c0.02,0.076-2.591,1.828-4.172,2.81c-0.057,0.038-0.285-0.21-0.543-0.591c-0.771-1.124-1.58-1.609-2.818-1.695 c-1.819-0.123-2.99,0.829-2.981,2.419c0,0.467,0.067,0.743,0.258,1.124c0.4,0.829,1.143,1.324,3.477,2.333 c4.295,1.848,6.133,3.067,7.275,4.801c1.276,1.933,1.563,5.019,0.695,7.313c-0.952,2.496-3.314,4.19-6.639,4.753 c-1.028,0.181-3.466,0.152-4.57-0.048c-2.41-0.429-4.695-1.619-6.105-3.181c-0.552-0.609-1.629-2.2-1.562-2.314 c0.028-0.038,0.276-0.19,0.552-0.353c0.268-0.152,1.276-0.733,2.229-1.285l1.724-1l0.361,0.533 c0.505,0.771,1.609,1.828,2.276,2.181c1.914,1.01,4.543,0.867,5.838-0.295c0.553-0.505,0.781-1.028,0.781-1.801 c0-0.694-0.086-0.999-0.447-1.523c-0.467-0.667-1.419-1.229-4.124-2.399c-3.096-1.334-4.429-2.162-5.647-3.477 c-0.705-0.762-1.372-1.981-1.647-3c-0.229-0.848-0.286-2.972-0.105-3.828c0.639-2.991,2.896-5.076,6.152-5.695 C142.919,125.348,145.376,125.424,146.414,125.682z"></path> </g> </svg> 